<svg xmlns="http://www.w3.org/2000/svg">
  <path transform="translate(2,12) scale(.8)" fill="#fff" d="M11.0095572,32 L8.21512775,30.8413037 L8.45963709,26.0541474 L5.94585261,23.5403629 L1.15869633,23.7848722 L-3.55271368e-15,20.9904428 L3.55803694,17.7782052 L3.55803694,14.2217948 L-3.55271368e-15,11.0095572 L1.15869633,8.21512775 L5.94585261,8.45963709 L8.45963709,5.94585261 L8.21512775,1.15869633 L11.0095572,-3.55271368e-15 L14.2217948,3.55803694 L17.7782052,3.55803694 L20.9904428,-3.55271368e-15 L23.7848722,1.15869633 L23.5403629,5.94585261 L26.0541474,8.45963709 L30.8413037,8.21512775 L32,11.0095572 L28.4419631,14.2217948 L28.4419631,17.7782052 L32,20.9904428 L30.8413037,23.7848722 L26.0541474,23.5403629 L23.5403629,26.0541474 L23.7848722,30.8413037 L20.9904428,32 L17.7782052,28.4419631 L14.2217948,28.4419631 L11.0095572,32 Z M16,24 C20.418278,24 24,20.418278 24,16 C24,11.581722 20.418278,8 16,8 C11.581722,8 8,11.581722 8,16 C8,20.418278 11.581722,24 16,24 L16,24 Z"></path>
</svg>
